<?xml version="1.0" encoding="UTF-8"?>
<svg version="1.1" xmlns="http://www.w3.org/2000/svg" width="55" height="50">
<path d="M0 0 C0.9553212 -0.00336868 1.9106424 -0.00673737 2.89491272 -0.01020813 C4.91136061 -0.00990969 6.92785421 0.00530093 8.9440918 0.03442383 C12.02208778 0.0740505 15.0957626 0.05514229 18.17382812 0.02929688 C20.13673539 0.03685773 22.09963312 0.04781294 24.0625 0.0625 C24.9782933 0.0555159 25.89408661 0.0485318 26.83763123 0.04133606 C30.95189401 0.13172333 34.23081506 0.36874509 37.67724609 2.75488281 C40.92350756 6.78766032 40.95464123 9.53068161 40.859375 14.5703125 C40.86274368 15.41465347 40.86611237 16.25899445 40.86958313 17.12892151 C40.86928489 18.90998439 40.85409223 20.69109933 40.82495117 22.47192383 C40.78532043 25.18796707 40.80423374 27.89911219 40.83007812 30.61523438 C40.82251699 32.35027924 40.81156148 34.08531332 40.796875 35.8203125 C40.80735115 37.02994911 40.80735115 37.02994911 40.81803894 38.26402283 C40.722995 42.08919501 40.34379688 45.05546976 38.17285156 48.27294922 C33.86228032 51.7615141 30.59518982 51.61335004 25.1953125 51.5234375 C24.2399913 51.52680618 23.2846701 51.53017487 22.30039978 51.53364563 C20.28395189 51.53334719 18.26745829 51.51813657 16.2512207 51.48901367 C13.17322472 51.449387 10.0995499 51.46829521 7.02148438 51.49414062 C5.05857711 51.48657977 3.09567938 51.47562456 1.1328125 51.4609375 C0.2170192 51.4679216 -0.69877411 51.4749057 -1.64231873 51.48210144 C-5.75658151 51.39171417 -9.03550256 51.15469241 -12.48193359 48.76855469 C-15.72819506 44.73577718 -15.75932873 41.99275589 -15.6640625 36.953125 C-15.66743118 36.10878403 -15.67079987 35.26444305 -15.67427063 34.39451599 C-15.67397239 32.61345311 -15.65877973 30.83233817 -15.62963867 29.05151367 C-15.59000793 26.33547043 -15.60892124 23.62432531 -15.63476562 20.90820312 C-15.62720449 19.17315826 -15.61624898 17.43812418 -15.6015625 15.703125 C-15.6085466 14.89670059 -15.6155307 14.09027618 -15.62272644 13.25941467 C-15.5276825 9.43424249 -15.14848438 6.46796774 -12.97753906 3.25048828 C-8.66696782 -0.2380766 -5.39987732 -0.08991254 0 0 Z " fill="#F6B118" transform="translate(14.90234375,-0.76171875)"/>
<path d="M0 0 C0.58378418 0.08378906 1.16756836 0.16757813 1.76904297 0.25390625 C-1.8666631 6.93810814 -5.52644558 13.60757688 -9.23095703 20.25390625 C-12.53095703 20.25390625 -15.83095703 20.25390625 -19.23095703 20.25390625 C-18.80943359 19.49464844 -18.38791016 18.73539063 -17.95361328 17.953125 C-17.40576172 16.95925781 -16.85791016 15.96539062 -16.29345703 14.94140625 C-15.74818359 13.95527344 -15.20291016 12.96914063 -14.64111328 11.953125 C-13.14741471 9.26828409 -13.14741471 9.26828409 -12.23095703 6.25390625 C-13.43902681 8.11571952 -14.62171 9.9940216 -15.79345703 11.87890625 C-16.45474609 12.92304688 -17.11603516 13.9671875 -17.79736328 15.04296875 C-19.5162272 18.89284924 -19.52008351 20.27070684 -18.23095703 24.25390625 C-16.86345614 26.96119562 -15.29728958 29.50966297 -13.66845703 32.06640625 C-9.23095703 39.17044646 -9.23095703 39.17044646 -9.23095703 40.25390625 C-12.71424611 40.83082055 -15.76390956 41.00076287 -19.23095703 40.25390625 C-22.26348608 37.65235485 -24.03444456 34.52323085 -25.98095703 31.06640625 C-26.52494141 30.20208984 -27.06892578 29.33777344 -27.62939453 28.44726562 C-30.48074896 23.67673032 -30.48074896 23.67673032 -31.23095703 21.25390625 C-30.46362305 18.71289062 -30.46362305 18.71289062 -29.23095703 16.25390625 C-28.82913208 15.24589966 -28.82913208 15.24589966 -28.41918945 14.2175293 C-22.24364142 -0.25726007 -15.15513915 -1.89102625 0 0 Z " fill="#133E77" transform="translate(36.23095703125,4.74609375)"/>
<path d="M0 0 C3.79810292 -0.54741341 7.21982848 -0.74663609 11 0 C13.89497592 2.53011325 15.35081813 5.56588044 17 9 C17.72703125 10.39798828 17.72703125 10.39798828 18.46875 11.82421875 C19.68810014 14.19856444 20.86115877 16.58626128 22 19 C18.33493174 20.05273237 15.63673389 20.23688375 12 19 C6.74057814 13.79652944 3.24272248 6.57612512 0 0 Z " fill="#FEFCF7" transform="translate(27,26)"/>
<path d="M0 0 C0.91007812 0.00902344 1.82015625 0.01804687 2.7578125 0.02734375 C3.80582031 0.04474609 3.80582031 0.04474609 4.875 0.0625 C1.23929393 6.74670189 -2.42048855 13.41617063 -6.125 20.0625 C-9.425 20.0625 -12.725 20.0625 -16.125 20.0625 C-15.72667969 19.36125 -15.32835938 18.66 -14.91796875 17.9375 C-12.45017576 13.51828919 -10.05436409 9.22325258 -8.375 4.4375 C-6.54642037 -0.499665 -4.86896167 -0.06242259 0 0 Z " fill="#122B4D" transform="translate(33.125,4.9375)"/>
</svg>
